<svg width="46" height="46" viewBox="0 0 46 46" fill="none" xmlns="http://www.w3.org/2000/svg">
<path d="M44.7344 44.7344C43.047 46.4219 40.3119 46.4219 38.6243 44.7344L31 37.11C27.8654 39.1209 24.1602 40.319 20.1595 40.319C9.02652 40.319 0 31.2937 0 20.1594C0 9.02517 9.02652 0 20.1595 0C31.294 0 40.319 9.02499 40.319 20.1594C40.319 24.1587 39.1194 27.8654 37.11 31.0014L44.7344 38.6258C46.4219 40.3133 46.4219 43.047 44.7344 44.7344ZM20.1595 5.7598C12.2074 5.7598 5.75989 12.2058 5.75989 20.1593C5.75989 28.1129 12.2074 34.559 20.1595 34.559C28.1129 34.559 34.5591 28.1129 34.5591 20.1593C34.5591 12.2058 28.1129 5.7598 20.1595 5.7598Z" fill="#FFC300"/>
</svg>
